# Blender v2.90.1 OBJ File: 'spraymodels.blend'
# www.blender.org
o same_normal_on_different_faces_Cube.004
v 1.862197 -1.000000 -2.934640
v 1.862197 1.000000 -2.934640
v 1.862197 1.000000 -1.000000
v 1.862197 -1.000000 -1.000000
v 1.000000 -1.000000 0.967376
v 1.000000 1.000000 0.967376
v 1.000000 -1.000000 -1.000000
v 1.000000 1.000000 -1.000000
v -0.366451 -1.000000 -2.934640
v -0.366451 1.000000 -2.934640
v -0.366451 -1.000000 0.967376
v -0.366451 1.000000 0.967376
vt 0.375000 0.500000
vt 0.625000 0.500000
vt 0.625000 0.500000
vt 0.375000 0.500000
vt 0.625000 0.500000
vt 0.625000 0.500000
vt 0.375000 0.750000
vt 0.375000 0.500000
vt 0.625000 0.500000
vt 0.625000 0.750000
vt 0.375000 0.500000
vt 0.375000 0.500000
vn -1.0000 0.0000 0.0000
vn 0.0000 0.0000 1.0000
vn 1.0000 0.0000 0.0000
vn 0.0000 0.0000 -1.0000
vn 0.0000 1.0000 0.0000
vn 0.0000 -1.0000 0.0000
s off
f 9/1/1 12/2/1 10/3/1
f 7/4/2 3/5/2 8/6/2
f 8/6/3 5/7/3 7/4/3
f 1/8/4 10/3/4 2/9/4
f 6/10/2 11/11/2 5/7/2
f 4/12/3 2/9/3 3/5/3
f 12/2/5 6/10/5 8/6/5
f 7/4/6 11/11/6 9/1/6
f 9/1/1 11/11/1 12/2/1
f 7/4/2 4/12/2 3/5/2
f 8/6/3 6/10/3 5/7/3
f 1/8/4 9/1/4 10/3/4
f 6/10/2 12/2/2 11/11/2
f 4/12/3 1/8/3 2/9/3
f 8/6/5 3/5/5 2/9/5
f 2/9/5 10/3/5 8/6/5
f 10/3/5 12/2/5 8/6/5
f 9/1/6 1/8/6 7/4/6
f 1/8/6 4/12/6 7/4/6
f 7/4/6 5/7/6 11/11/6
